<?xml version="1.0" encoding="utf-8"?>
<!-- Generator: Adobe Illustrator 27.0.0, SVG Export Plug-In . SVG Version: 6.00 Build 0)  -->
<svg version="1.1" id="图层_1" xmlns="http://www.w3.org/2000/svg" xmlns:xlink="http://www.w3.org/1999/xlink" x="0px" y="0px"
	 viewBox="0 0 1024 1024" style="enable-background:new 0 0 1024 1024;" xml:space="preserve">
<style type="text/css">
	.st0{fill:#374151;}
	.st1{fill:#34D399;enable-background:new    ;}
</style>
<g>
	<path class="st0" d="M894.9,421.5L347.1,759c-12.4,7.5-28.1,6.7-39.6-2.2C255.6,716.9,208.9,676,178,641.9c0,0-26.8-27.4-38.2-44.8
		c-18.4-24.4-28.1-54.2-27.7-84.7c0-33.7,9.7-65.6,29.4-91.1c4.5-4.5,21.4-24.6,37.5-41.1c93.5-102,337.4-270.5,465.9-321.7
		c18.6-8.2,68.4-25.5,94.3-26.4c24.9,0,48.9,5.4,72,17.4c28.5,16.3,50.8,41.8,63.2,72c8.1,21,20.6,83.8,20.6,85.7
		c8.1,44.8,14.1,108,17.1,181.7C912.7,402,906.1,414.4,894.9,421.5L894.9,421.5z"/>
	<path class="st1" d="M858.3,603.2c24.2-15,54.6,4.1,53.4,32.8c-2.1,57.2-6.7,114.2-14.1,171c-0.9,0.9-13.3,79.1-27.7,105.7
		c-23.8,48.2-72.7,78.9-126.4,79.3h-4.3c-33.9-0.9-106.1-30.9-106.1-32.8c-36.4-15.2-83.8-40.7-134.8-71.4
		c-17.2-10.7-22.7-33.2-12-50.4c2.8-4.7,6.9-8.8,11.4-11.8L858.3,603.2L858.3,603.2z"/>
</g>
</svg>
