<?xml version="1.0" encoding="UTF-8"?>
<svg id="magic-conch" data-name="Magic Conch" xmlns="http://www.w3.org/2000/svg" viewBox="0 0 902.39 994.6" width="40" height="40">
  <g>
    <path d="M732.5,281.1c-31.82,1.26-31.83,46.73,0,48,13.26,0,24-10.75,24-24s-10.74-24-24-24Zm-48.74,23.9c-.18-23.75,15.9-47.62,48.24-48.9,26.79,0,48.5,21.71,48.5,48.5s-21.71,48.5-48.5,48.5c-6.8-.27-12.89-1.54-18.25-3.6-19.85-7.61-29.85-26.02-29.99-44.5Z" style="fill: #fff;"/>
    <path d="M669.5,334.1c-1-6-3-17,4-21,3.67-2.1,4.87-4.48,5.17-6.26l5.09-1.84c.14,18.48,10.14,36.89,29.99,44.5l-.02,.04-.23,.56c-1.57,1.57-5.75,4.82-7.49,6.17-.24,0-.38,.22-.76,.58,0,.01-.02,.01-.02,.01-.59,.54-1.76,1.39-4.73,2.24-7,2-21-8-21-8,0,0-9-11-10-17Z" style="fill: #fff;"/>
    <path d="M639.67,666.58c1.45,11.31,3.77,22.4,7.39,31.88-10.13-4.82-20.01-5.4-21.56-4.36l-1.13,.55c-1.56-1.89-3.17-3.57-4.82-5.04-.5-8.13-.97-16.12-1.43-23.97,7.21-.18,14.48,.06,21.08,1l.47-.06Z"/>
    <path d="M639.67,666.58l-.47,.06c-6.6-.94-13.87-1.18-21.08-1-.38-6.59-.75-13.09-1.11-19.47,6.66,.12,13.64,.66,20.78,1.77h.19c.34,6.12,.88,12.41,1.69,18.64Z"/>
    <path d="M639.53,559.67c-8.95,.28-17.88,.76-26.72,1.39-.29-7.06-.56-13.9-.8-20.52,8.64-.51,17.71-.95,27.21-1.31,.31,7.05,.45,13.91,.46,20.44h-.15Z"/>
    <path d="M639.2,579.2c-8.37,.01-16.95,.32-25.56,.85-.3-6.49-.57-12.82-.83-18.99,8.84-.63,17.77-1.11,26.72-1.39h.15c.01,6.93-.11,13.49-.32,19.54h-.16Z"/>
    <path d="M639.22,539.23c-9.5,.36-18.57,.8-27.21,1.31-.27-7.57-.51-14.85-.72-21.82,8.52-.77,17.32-1.46,26.37-2.03,.74,7.63,1.24,15.19,1.56,22.54Z"/>
    <path d="M637.44,623.11h-.94c-6.64-.67-13.66-.9-20.78-.79-.35-6.66-.69-13.18-1-19.58-.39-7.76-.75-15.33-1.08-22.69,8.61-.53,17.19-.84,25.56-.85h.16c-.28,7.98-.69,15.07-1.13,20.9-.23,4.46-.68,12.73-.79,23.01Z"/>
    <path d="M637.44,623.11c-.08,7.46,.03,15.96,.54,24.82h-.19c-7.14-1.1-14.12-1.64-20.78-1.76-.45-8.12-.88-16.07-1.29-23.85,7.12-.11,14.14,.12,20.78,.78h.94Z"/>
    <path d="M634.01,489.97c1.6,8.83,2.79,17.82,3.65,26.72-9.05,.57-17.85,1.26-26.37,2.03-.28-9.38-.49-18.21-.65-26.44,8.25-1.07,16.1-1.87,23.37-2.31Z"/>
    <path d="M626.29,459c3.27,9.83,5.8,20.29,7.72,30.97-7.27,.44-15.12,1.24-23.37,2.31-.21-12-.29-22.75-.23-32.16,6.28-.81,11.67-1.22,15.88-1.12Z"/>
    <path d="M618.12,665.64c.46,7.85,.93,15.84,1.43,23.97-7.73-6.94-16.2-9.53-23.01-10.4-.4-3.66-.78-7.57-1.15-11.72,6.82-.91,14.74-1.65,22.73-1.85Z"/>
    <path d="M617.01,646.17c.36,6.38,.73,12.88,1.11,19.47-7.99,.2-15.91,.94-22.73,1.85-.56-6.24-1.08-12.99-1.57-20.14,7.05-.85,14.88-1.34,23.19-1.18Z"/>
    <path d="M617.01,646.17c-8.31-.16-16.14,.33-23.19,1.18-.51-7.51-.99-15.47-1.42-23.75,7.63-.7,15.53-1.19,23.32-1.28,.41,7.78,.84,15.73,1.29,23.85Z"/>
    <path d="M615.6,434.4c4.24,7.49,7.77,15.79,10.69,24.6-4.21-.1-9.6,.31-15.88,1.12,.06-9.93,.29-18.37,.67-25.18,1.44-.15,2.86-.28,4.25-.39l.27-.15Z"/>
    <path d="M614.72,602.74c.31,6.4,.65,12.92,1,19.58-7.79,.09-15.69,.58-23.32,1.28-.35-6.6-.68-13.4-.97-20.34,7.42-.43,15.22-.63,23.29-.52Z"/>
    <path d="M615.33,434.55c-1.39,.11-2.81,.24-4.25,.39,.14-2.35,.29-4.51,.46-6.47l.32-.21c1.31,1.98,2.56,4.03,3.74,6.14l-.27,.15Z"/>
    <path d="M613.64,580.05c.33,7.36,.69,14.93,1.08,22.69-8.07-.11-15.87,.09-23.29,.52-.31-6.98-.58-14.11-.83-21.3,7.61-.78,15.33-1.44,23.04-1.91Z"/>
    <path d="M612.81,561.06c.26,6.17,.53,12.5,.83,18.99-7.71,.47-15.43,1.13-23.04,1.91-.22-6.25-.41-12.56-.59-18.89,7.48-.77,15.1-1.45,22.8-2.01Z"/>
    <path d="M612.01,540.54c.24,6.62,.51,13.46,.8,20.52-7.7,.56-15.32,1.24-22.8,2.01-.2-7-.37-14.01-.52-20.98,7.16-.57,14.67-1.09,22.52-1.55Z"/>
    <path d="M611.29,518.72c.21,6.97,.45,14.25,.72,21.82-7.85,.46-15.36,.98-22.52,1.55-.16-7.09-.28-14.14-.38-21.07,7.17-.83,14.57-1.6,22.18-2.3Z"/>
    <path d="M591.5,407.17c8,5.35,14.73,12.56,20.36,21.09l-.32,.21c-.17,1.96-.32,4.12-.46,6.47-6.8,.66-14.1,1.62-21.74,2.81,.44-14.91,1.16-25.79,2.16-30.58Z"/>
    <path d="M610.64,492.28c.16,8.23,.37,17.06,.65,26.44-7.61,.7-15.01,1.47-22.18,2.3-.13-8.69-.22-17.2-.27-25.43,7.48-1.28,14.79-2.39,21.8-3.31Z"/>
    <path d="M611.08,434.94c-.38,6.81-.61,15.25-.67,25.18-6.36,.82-13.63,2.05-21.54,3.6,.09-9.55,.24-18.3,.47-25.97,7.64-1.19,14.94-2.15,21.74-2.81Z"/>
    <path d="M610.41,460.12c-.06,9.41,.02,20.16,.23,32.16-7.01,.92-14.32,2.03-21.8,3.31-.06-11.27-.05-21.99,.03-31.87,7.91-1.55,15.18-2.78,21.54-3.6Z"/>
    <path d="M595.39,667.49c.37,4.15,.75,8.06,1.15,11.72-6.66-.84-11.73-.03-12.96,0l-1.94,1.1c-1.83-3.29-3.8-6.24-5.85-8.88,2.44-.99,9.93-2.64,19.6-3.94Z"/>
    <path d="M593.82,647.35c.49,7.15,1.01,13.9,1.57,20.14-9.67,1.3-17.16,2.95-19.6,3.94-1.55-2-3.15-3.82-4.76-5.48l1.62-.36c-.93-4.24-1.79-8.75-2.58-13.52,6.04-1.75,14.19-3.56,23.75-4.72Z"/>
    <path d="M592.4,623.6c.43,8.28,.91,16.24,1.42,23.75-9.56,1.16-17.71,2.97-23.75,4.72-1.29-7.82-2.39-16.31-3.33-25.28,7.71-1.19,16.49-2.35,25.66-3.19Z"/>
    <path d="M591.43,603.26c.29,6.94,.62,13.74,.97,20.34-9.17,.84-17.95,2-25.66,3.19-.7-6.75-1.3-13.77-1.82-20.98,8.05-1.1,16.97-2.01,26.51-2.55Z"/>
    <path d="M590.6,581.96c.25,7.19,.52,14.32,.83,21.3-9.54,.54-18.46,1.45-26.51,2.55-.48-6.69-.88-13.54-1.21-20.51,8.63-1.25,17.68-2.39,26.89-3.34Z"/>
    <path d="M590.01,563.07c.18,6.33,.37,12.64,.59,18.89-9.21,.95-18.26,2.09-26.89,3.34-.31-6.26-.55-12.61-.75-19,8.72-1.18,17.77-2.28,27.05-3.23Z"/>
    <path d="M589.49,542.09c.15,6.97,.32,13.98,.52,20.98-9.28,.95-18.33,2.05-27.05,3.23-.21-7.2-.37-14.45-.46-21.7,8.41-.91,17.4-1.75,26.99-2.51Z"/>
    <path d="M591.5,407.17c-1,4.79-1.72,15.67-2.16,30.58-7.97,1.23-16.32,2.72-24.85,4.39,.74-13.84,1.6-25.73,2.48-34.72,6.52-.88,12.96-1.58,19.24-2.05l.83-1c1.75,1.1,3.26,2.04,4.46,2.8Z"/>
    <path d="M589.11,521.02c.1,6.93,.22,13.98,.38,21.07-9.59,.76-18.58,1.6-26.99,2.51-.1-6.72-.14-13.43-.14-20.09,8.54-1.25,17.46-2.42,26.75-3.49Z"/>
    <path d="M589.34,437.75c-.23,7.67-.38,16.42-.47,25.97-7.97,1.57-16.58,3.45-25.56,5.54,.34-9.62,.74-18.73,1.18-27.12,8.53-1.67,16.88-3.16,24.85-4.39Z"/>
    <path d="M588.84,495.59c.05,8.23,.14,16.74,.27,25.43-9.29,1.07-18.21,2.24-26.75,3.49,0-8.1,.07-16.12,.18-23.97,8.89-1.82,17.72-3.49,26.3-4.95Z"/>
    <path d="M588.87,463.72c-.08,9.88-.09,20.6-.03,31.87-8.58,1.46-17.41,3.13-26.3,4.95,.17-10.82,.44-21.33,.77-31.28,8.98-2.09,17.59-3.97,25.56-5.54Z"/>
    <path d="M587.04,404.37l-.83,1c-6.28,.47-12.72,1.17-19.24,2.05,.63-6.49,1.28-11.47,1.89-14.59,7.17,4.64,13.55,8.64,18.18,11.54Z"/>
    <path d="M572.65,665.59l-1.62,.36c-4.07-4.19-8.22-7.32-11.95-9.59,1.29-.95,5.16-2.59,10.99-4.29,.79,4.77,1.65,9.28,2.58,13.52Z"/>
    <path d="M568.86,392.83c-.61,3.12-1.26,8.1-1.89,14.59-7.66,1.03-15.44,2.32-23.22,3.81,.38-8.25,.82-15.27,1.27-20.76,6.34-.93,12.26-1.52,17.57-1.71h.01c2.14,1.4,4.23,2.77,6.26,4.07Z"/>
    <path d="M566.74,626.79c.94,8.97,2.04,17.46,3.33,25.28-5.83,1.7-9.7,3.34-10.99,4.29-1.93-1.18-3.73-2.12-5.36-2.87-1.35-7.5-2.55-15.48-3.62-23.83,4.56-.87,10.24-1.88,16.64-2.87Z"/>
    <path d="M564.92,605.81c.52,7.21,1.12,14.23,1.82,20.98-6.4,.99-12.08,2-16.64,2.87-.87-6.79-1.65-13.81-2.36-21.02,5.13-1,10.89-1.98,17.18-2.83Z"/>
    <path d="M566.97,407.42c-.88,8.99-1.74,20.88-2.48,34.72-7.19,1.4-14.51,2.93-21.86,4.54,.25-13.28,.64-25.29,1.12-35.45,7.78-1.49,15.56-2.78,23.22-3.81Z"/>
    <path d="M563.71,585.3c.33,6.97,.73,13.82,1.21,20.51-6.29,.85-12.05,1.83-17.18,2.83-.65-6.72-1.24-13.59-1.76-20.56,5.64-.96,11.58-1.9,17.73-2.78Z"/>
    <path d="M564.49,442.14c-.44,8.39-.84,17.5-1.18,27.12-6.83,1.6-13.86,3.33-20.98,5.13,.03-9.68,.13-18.97,.3-27.71,7.35-1.61,14.67-3.14,21.86-4.54Z"/>
    <path d="M562.96,566.3c.2,6.39,.44,12.74,.75,19-6.15,.88-12.09,1.82-17.73,2.78-.47-6.3-.89-12.67-1.26-19.1,5.88-.93,11.97-1.83,18.24-2.68Z"/>
    <path d="M563.31,469.26c-.33,9.95-.6,20.46-.77,31.28-6.66,1.36-13.37,2.8-20.04,4.3-.15-10.43-.2-20.64-.17-30.45,7.12-1.8,14.15-3.53,20.98-5.13Z"/>
    <path d="M562.5,544.6c.09,7.25,.25,14.5,.46,21.7-6.27,.85-12.36,1.75-18.24,2.68-.42-7.34-.78-14.74-1.09-22.14,5.94-.78,12.23-1.53,18.87-2.24Z"/>
    <path d="M562.54,500.54c-.11,7.85-.18,15.87-.18,23.97-6.7,.98-13.17,2.01-19.39,3.06-.21-7.65-.36-15.25-.47-22.73,6.67-1.5,13.38-2.94,20.04-4.3Z"/>
    <path d="M562.36,524.51c0,6.66,.04,13.37,.14,20.09-6.64,.71-12.93,1.46-18.87,2.24-.26-6.44-.47-12.87-.66-19.27,6.22-1.05,12.69-2.08,19.39-3.06Z"/>
    <path d="M546.66,378.03c5.35,3.7,10.77,7.33,15.93,10.73-5.31,.19-11.23,.78-17.57,1.71,.54-6.43,1.1-10.74,1.64-12.44Z"/>
    <path d="M550.1,629.66c1.07,8.35,2.27,16.33,3.62,23.83-3.71-1.71-6.48-2.39-7.51-2.39l-2,.42c-1.36-6.22-3.21-12.21-5.71-17.42-.25-.53-.52-1.06-.8-1.57l.8-.43c1.01-.25,5.22-1.21,11.6-2.44Z"/>
    <path d="M547.74,608.64c.71,7.21,1.49,14.23,2.36,21.02-6.38,1.23-10.59,2.19-11.6,2.44l-.8,.43c-3.28-6.14-8.02-11.27-13.48-15.5-.07-.73-.14-1.46-.21-2.2,3.82-1.54,12.16-3.94,23.73-6.19Z"/>
    <path d="M545.98,588.08c.52,6.97,1.11,13.84,1.76,20.56-11.57,2.25-19.91,4.65-23.73,6.19-.69-7.2-1.3-14.63-1.86-22.24,7.02-1.48,15.07-3.02,23.83-4.51Z"/>
    <path d="M545.98,588.08c-8.76,1.49-16.81,3.03-23.83,4.51-.47-6.4-.89-12.92-1.27-19.53,7.41-1.37,15.4-2.76,23.84-4.08,.37,6.43,.79,12.8,1.26,19.1Z"/>
    <path d="M546.66,378.03c-.54,1.7-1.1,6.01-1.64,12.44-8.09,1.17-16.85,2.87-25.88,4.9,.36-8.31,.79-15.44,1.27-21.12,7.63-1.8,13.5-2.96,16.46-3.15,3.19,2.32,6.48,4.64,9.79,6.93Z"/>
    <path d="M545.02,390.47c-.45,5.49-.89,12.51-1.27,20.76-8.49,1.62-16.98,3.46-25.33,5.46,.19-7.72,.44-14.87,.72-21.32,9.03-2.03,17.79-3.73,25.88-4.9Z"/>
    <path d="M543.63,546.84c.31,7.4,.67,14.8,1.09,22.14-8.44,1.32-16.43,2.71-23.84,4.08-.44-7.47-.82-15.04-1.15-22.66,7.26-1.22,15.22-2.42,23.9-3.56Z"/>
    <path d="M542.97,527.57c.19,6.4,.4,12.83,.66,19.27-8.68,1.14-16.64,2.34-23.9,3.56-.27-6.1-.5-12.23-.7-18.36,7.52-1.53,15.5-3.03,23.94-4.47Z"/>
    <path d="M543.75,411.23c-.48,10.16-.87,22.17-1.12,35.45-8.26,1.82-16.56,3.75-24.73,5.73,.06-12.78,.24-24.82,.52-35.72,8.35-2,16.84-3.84,25.33-5.46Z"/>
    <path d="M542.5,504.84c.11,7.48,.26,15.08,.47,22.73-8.44,1.44-16.42,2.94-23.94,4.47-.25-7.21-.45-14.42-.6-21.58,7.9-1.92,15.96-3.81,24.07-5.62Z"/>
    <path d="M542.63,446.68c-.17,8.74-.27,18.03-.3,27.71-8.08,2.05-16.27,4.2-24.37,6.39-.08-9.75-.1-19.25-.06-28.37,8.17-1.98,16.47-3.91,24.73-5.73Z"/>
    <path d="M542.33,474.39c-.03,9.81,.02,20.02,.17,30.45-8.11,1.81-16.17,3.7-24.07,5.62-.23-10.05-.39-19.98-.47-29.68,8.1-2.19,16.29-4.34,24.37-6.39Z"/>
    <path d="M605.78,295c-23.33,15.38-92.87-74.84-72.06-93.45,9.23-7.12,32.85,8.02,52.75,33.83,19.9,25.8,28.55,52.49,19.31,59.62Z" style="fill: #fff;"/>
    <path d="M524.01,614.83c.07,.74,.14,1.47,.21,2.2-.62-.49-1.25-.96-1.89-1.41,.39-.23,.95-.49,1.68-.79Z"/>
    <path d="M522.5,360.1c4.34,3.55,9.24,7.27,14.37,11-2.96,.19-8.83,1.35-16.46,3.15,.63-7.41,1.34-12.34,2.09-14.15Z"/>
    <path d="M524.01,614.83c-.73,.3-1.29,.56-1.68,.79,0-.01-.01,0-.01,0-5.57-4.01-11.75-7.14-17.8-9.5l.03-.08c-.31-2.98-.61-6.02-.9-9.11,4.74-1.28,11.04-2.78,18.5-4.34,.56,7.61,1.17,15.04,1.86,22.24Z"/>
    <path d="M520.88,573.06c.38,6.61,.8,13.13,1.27,19.53-7.46,1.56-13.76,3.06-18.5,4.34-.6-6.49-1.14-13.22-1.63-20.13,5.74-1.22,12.06-2.48,18.86-3.74Z"/>
    <path d="M522.5,360.1c-.75,1.81-1.46,6.74-2.09,14.15-6.19,1.44-13.54,3.31-21.44,5.4,.35-12.22,.76-22.24,1.18-29.24,4.09-1.03,7.36-1.76,9.44-2.07,4.51,4.46,8.89,8.47,12.91,11.76Z"/>
    <path d="M519.73,550.4c.33,7.62,.71,15.19,1.15,22.66-6.8,1.26-13.12,2.52-18.86,3.74-.52-7.42-.99-15.05-1.39-22.81,5.75-1.2,12.11-2.4,19.1-3.59Z"/>
    <path d="M519.03,532.04c.2,6.13,.43,12.26,.7,18.36-6.99,1.19-13.35,2.39-19.1,3.59-.31-5.86-.58-11.8-.83-17.78,6.02-1.39,12.43-2.79,19.23-4.17Z"/>
    <path d="M520.41,374.25c-.48,5.68-.91,12.81-1.27,21.12-6.79,1.53-13.73,3.25-20.64,5.08,.13-7.45,.29-14.42,.47-20.8,7.9-2.09,15.25-3.96,21.44-5.4Z"/>
    <path d="M518.43,510.46c.15,7.16,.35,14.37,.6,21.58-6.8,1.38-13.21,2.78-19.23,4.17-.28-6.93-.52-13.91-.73-20.91,6.29-1.61,12.77-3.23,19.36-4.84Z"/>
    <path d="M519.14,395.37c-.28,6.45-.53,13.6-.72,21.32-6.86,1.63-13.63,3.36-20.21,5.14,.07-7.46,.17-14.62,.29-21.38,6.91-1.83,13.85-3.55,20.64-5.08Z"/>
    <path d="M518.43,510.46c-6.59,1.61-13.07,3.23-19.36,4.84-.29-9.73-.5-19.47-.65-29.12,6.39-1.8,12.94-3.61,19.54-5.4,.08,9.7,.24,19.63,.47,29.68Z"/>
    <path d="M518.42,416.69c-.28,10.9-.46,22.94-.52,35.72-6.71,1.62-13.32,3.28-19.77,4.94-.06-12.34-.02-24.28,.08-35.52,6.58-1.78,13.35-3.51,20.21-5.14Z"/>
    <path d="M517.9,452.41c-.04,9.12-.02,18.62,.06,28.37-6.6,1.79-13.15,3.6-19.54,5.4-.16-9.76-.25-19.41-.29-28.83,6.45-1.66,13.06-3.32,19.77-4.94Z"/>
    <path d="M504.55,606.04l-.03,.08c-3.59-1.41-7.14-2.54-10.49-3.43l.79-2.89c1.45-.71,4.49-1.7,8.83-2.87,.29,3.09,.59,6.13,.9,9.11Z"/>
    <path d="M501.54,340.09c2.7,2.86,5.4,5.63,8.05,8.25-2.08,.31-5.35,1.04-9.44,2.07,.28-4.73,.57-8.09,.84-9.81l.55-.51Z"/>
    <path d="M494.82,599.8l-.79,2.89c-3.05-.81-5.93-1.42-8.53-1.84-.66-6.75-1.28-13.37-1.88-19.86,5.11-1.27,11.31-2.69,18.4-4.19,.49,6.91,1.03,13.64,1.63,20.13-4.34,1.17-7.38,2.16-8.83,2.87Z"/>
    <path d="M501.54,340.09l-.55,.51c-.27,1.72-.56,5.08-.84,9.81-6.78,1.68-15.83,4.19-25.42,6.96,.3-6.4,.66-12.08,1.07-17.06,6.03-1.66,12.87-3.55,20.69-5.68h0c1.67,1.85,3.35,3.67,5.04,5.46Z"/>
    <path d="M500.63,553.99c.4,7.76,.87,15.39,1.39,22.81-7.09,1.5-13.29,2.92-18.4,4.19-.7-7.7-1.36-15.23-1.98-22.57,5.43-1.43,11.73-2.93,18.99-4.43Z"/>
    <path d="M499.8,536.21c.25,5.98,.52,11.92,.83,17.78-7.26,1.5-13.56,3-18.99,4.43-.49-5.89-.96-11.67-1.39-17.33,5.96-1.59,12.48-3.23,19.55-4.88Z"/>
    <path d="M499.07,515.3c.21,7,.45,13.98,.73,20.91-7.07,1.65-13.59,3.29-19.55,4.88-.55-6.99-1.05-13.8-1.51-20.44,6.48-1.75,13.29-3.54,20.33-5.35Z"/>
    <path d="M500.15,350.41c-.42,7-.83,17.02-1.18,29.24-7.98,2.12-16.53,4.48-25.02,6.89,.11-11.01,.39-20.72,.78-29.17,9.59-2.77,18.64-5.28,25.42-6.96Z"/>
    <path d="M498.97,379.65c-.18,6.38-.34,13.35-.47,20.8-8.33,2.21-16.62,4.57-24.57,6.95-.06-7.41-.05-14.36,.02-20.86,8.49-2.41,17.04-4.77,25.02-6.89Z"/>
    <path d="M498.42,486.18c.15,9.65,.36,19.39,.65,29.12-7.04,1.81-13.85,3.6-20.33,5.35-.69-9.81-1.29-19.23-1.81-28.29,6.85-2.01,14.07-4.09,21.49-6.18Z"/>
    <path d="M498.5,400.45c-.12,6.76-.22,13.92-.29,21.38-8.32,2.26-16.35,4.59-23.93,6.9-.18-7.5-.29-14.61-.35-21.33,7.95-2.38,16.24-4.74,24.57-6.95Z"/>
    <path d="M498.13,457.35c.04,9.42,.13,19.07,.29,28.83-7.42,2.09-14.64,4.17-21.49,6.18-.59-10.12-1.08-19.78-1.48-28.99,7.19-1.97,14.8-3.99,22.68-6.02Z"/>
    <path d="M498.13,457.35c-7.88,2.03-15.49,4.05-22.68,6.02-.54-12.36-.92-23.89-1.17-34.64,7.58-2.31,15.61-4.64,23.93-6.9-.1,11.24-.14,23.18-.08,35.52Z"/>
    <path d="M483.62,580.99c.6,6.49,1.22,13.11,1.88,19.86-3.14-.51-5.88-.75-8-.75l-1.96,.79c-2.42-6.01-5.06-11.05-7.65-15.26h.01c1.52-.82,7.07-2.5,15.72-4.64Z"/>
    <path d="M479.64,314.79c5.1,6.42,10.89,13.26,16.85,19.84-7.82,2.13-14.66,4.02-20.69,5.68,.81-9.89,1.79-17.03,2.77-21.57,.36-1.66,.72-2.97,1.07-3.95Z"/>
    <path d="M481.64,558.42c.62,7.34,1.28,14.87,1.98,22.57-8.65,2.14-14.2,3.82-15.72,4.64h-.01c-4.97-8.11-9.75-13.12-12.39-15.9-.05-.28-.12-1.12-.19-2.45,3.23-1.6,11.5-4.96,26.33-8.86Z"/>
    <path d="M480.25,541.09c.43,5.66,.9,11.44,1.39,17.33-14.83,3.9-23.1,7.26-26.33,8.86-.19-3.32-.44-9.74-.71-18.49,6.8-2.31,15.39-4.94,25.65-7.7Z"/>
    <path d="M479.64,314.78h0c-.35,.99-.71,2.3-1.07,3.96-5.24,3.77-15.18,6.96-24.29,9.3,.75-13.46,1.77-24.28,3.13-31.15,1.05-1.59,2.08-3.18,3.09-4.79,.64-1.01,1.27-2.03,1.9-3.06,2.06,5.27,8.65,14.92,17.24,25.74Z"/>
    <path d="M478.74,520.65c.46,6.64,.96,13.45,1.51,20.44-10.26,2.76-18.85,5.39-25.65,7.7-.19-6.07-.39-13.26-.6-21.3,7.43-2.11,15.77-4.43,24.74-6.84Z"/>
    <path d="M476.93,492.36c.52,9.06,1.12,18.48,1.81,28.29-8.97,2.41-17.31,4.73-24.74,6.84-.21-8.5-.42-17.96-.61-28.07,7.07-2.18,15.02-4.57,23.54-7.06Z"/>
    <path d="M478.57,318.74c-.98,4.54-1.96,11.68-2.77,21.57-9.08,2.5-16.32,4.51-22.32,6.1,.22-6.53,.49-12.68,.8-18.37,9.11-2.34,19.05-5.53,24.29-9.3Z"/>
    <path d="M475.45,463.37c.4,9.21,.89,18.87,1.48,28.99-8.52,2.49-16.47,4.88-23.54,7.06-.18-9.41-.35-19.39-.49-29.69,6.83-1.99,14.42-4.14,22.55-6.36Z"/>
    <path d="M475.8,340.31c-.41,4.98-.77,10.66-1.07,17.06-7.17,2.07-14.65,4.29-21.73,6.43,.13-6.02,.29-11.84,.48-17.39,6-1.59,13.24-3.6,22.32-6.1Z"/>
    <path d="M474.28,428.73c.25,10.75,.63,22.28,1.17,34.64-8.13,2.22-15.72,4.37-22.55,6.36-.14-11.08-.25-22.52-.32-34.02,6.64-2.24,13.93-4.6,21.7-6.98Z"/>
    <path d="M474.73,357.37c-.39,8.45-.67,18.16-.78,29.17-7.29,2.07-14.54,4.19-21.35,6.23,.07-10,.21-19.73,.4-28.97,7.08-2.14,14.56-4.36,21.73-6.43Z"/>
    <path d="M452.6,392.77c6.81-2.04,14.06-4.16,21.35-6.23-.07,6.5-.08,13.45-.02,20.86-7.53,2.25-14.76,4.52-21.41,6.69,0-7.19,.03-14.32,.08-21.32Z"/>
    <path d="M473.93,407.4c.06,6.72,.17,13.83,.35,21.33-7.77,2.38-15.06,4.74-21.7,6.98-.04-7.21-.06-14.45-.06-21.62,6.65-2.17,13.88-4.44,21.41-6.69Z"/>
    <path d="M455.31,567.28c.07,1.33,.14,2.17,.19,2.45-.5-.53-1.07-1.07-1.68-1.62,.21-.16,.7-.44,1.49-.83Z"/>
    <path d="M454.6,548.79c.27,8.75,.52,15.17,.71,18.49-.79,.39-1.28,.67-1.49,.83-4.57-4.08-11.95-8.66-17.41-11.81,1.81-1.32,7.99-4.05,18.19-7.51Z"/>
    <path d="M436.49,331.93c3.29-.6,10.26-1.95,17.79-3.89-.31,5.69-.58,11.84-.8,18.37-8.37,2.23-14.32,3.66-19.46,4.56,.69-6.91,1.51-13.31,2.47-19.04Z"/>
    <path d="M454,527.49c.21,8.04,.41,15.23,.6,21.3-10.2,3.46-16.38,6.19-18.19,7.51-.79-.46-1.54-.88-2.23-1.27h0c-.14-1.44-.61-9.3-1.15-21.44,5.66-1.69,12.77-3.77,20.97-6.1Z"/>
    <path d="M453.39,499.42c.19,10.11,.4,19.57,.61,28.07-8.2,2.33-15.31,4.41-20.97,6.1-.34-7.62-.72-16.93-1.06-27.38,5.48-1.82,12.8-4.14,21.42-6.79Z"/>
    <path d="M453.48,346.41c-.19,5.55-.35,11.37-.48,17.39-7.59,2.29-14.71,4.49-20.5,6.31,.42-6.7,.92-13.11,1.52-19.14,5.14-.9,11.09-2.33,19.46-4.56Z"/>
    <path d="M452.9,469.73c.14,10.3,.31,20.28,.49,29.69-8.62,2.65-15.94,4.97-21.42,6.79-.3-9.2-.58-19.29-.79-29.91,5.73-1.82,13.12-4.07,21.72-6.57Z"/>
    <path d="M453,363.8c-.19,9.24-.33,18.97-.4,28.97-7.94,2.37-15.27,4.64-21.37,6.61,.28-10.12,.69-19.97,1.27-29.27,5.79-1.82,12.91-4.02,20.5-6.31Z"/>
    <path d="M452.58,435.71c.07,11.5,.18,22.94,.32,34.02-8.6,2.5-15.99,4.75-21.72,6.57-.22-10.54-.36-21.6-.41-32.81h0c5.95-2.26,13.35-4.92,21.81-7.78Z"/>
    <path d="M452.6,392.77c-.05,7-.08,14.13-.08,21.32-8.27,2.69-15.66,5.22-21.69,7.36,.08-7.43,.21-14.82,.4-22.07,6.1-1.97,13.43-4.24,21.37-6.61Z"/>
    <path d="M452.52,414.09c0,7.17,.02,14.41,.06,21.62-8.46,2.86-15.86,5.52-21.81,7.77-.03-7.31-.01-14.69,.06-22.03,6.03-2.14,13.42-4.67,21.69-7.36Z"/>
    <path d="M454.58,134.52c-38.29-23.11-23.41-48.88,15.74-27.27,16.12,9.31,25.66,22.95,21.31,30.48s-20.93,6.1-37.05-3.21Z" style="fill: #fff;"/>
    <path d="M437.32,327.37c6.52-10.99,13.61-20.65,20.09-30.48-1.36,6.87-2.38,17.69-3.13,31.15-7.53,1.94-14.5,3.29-17.79,3.89,.27-1.57,.54-3.09,.83-4.55h0Z"/>
    <path d="M437.32,327.38c-.29,1.46-.56,2.98-.83,4.55-1.27,.24-1.99,.36-1.99,.36,.92-1.67,1.86-3.3,2.82-4.91Z"/>
    <path d="M425.18,352.1c2.77-7.2,5.93-13.72,9.32-19.81,0,0,.72-.12,1.99-.36-.96,5.73-1.78,12.13-2.47,19.04-3.12,.56-5.95,.91-8.84,1.13Z"/>
    <path d="M434.02,350.97c-.6,6.03-1.1,12.44-1.52,19.14-8.44,2.66-14.03,4.53-14.04,4.73h-.01c1.78-8.33,4.07-15.84,6.73-22.74,2.89-.22,5.72-.57,8.84-1.13Z"/>
    <path d="M432.5,370.11c-.58,9.3-.99,19.15-1.27,29.27-8.37,2.71-14.41,4.87-16.5,5.99,.17-3.9,.42-7.67,.77-11.27,.68-6.89,1.68-13.28,2.95-19.26h.01c.01-.2,5.6-2.07,14.04-4.73Z"/>
    <path d="M586.47,235.38c-19.9-25.81-43.52-40.95-52.75-33.83-20.81,18.61,48.73,108.83,72.06,93.45,9.24-7.13,.59-33.82-19.31-59.62Zm-116.15-128.13c-39.15-21.61-54.03,4.16-15.74,27.27,16.12,9.31,32.7,10.74,37.05,3.21s-5.19-21.17-21.31-30.48Zm-51.87,267.59c-1.27,5.98-2.27,12.37-2.95,19.26-.35,3.6-.6,7.37-.77,11.27-.3,7.06-.31,14.55-.09,22.25,.2,7.22,.6,14.64,1.14,22.08,.75,10.42,1.79,20.88,2.94,30.91,1.19,10.25,2.5,20.06,3.78,28.91,1.48,10.19,2.91,19.12,4.06,26.03,.83,5.02,1.51,8.96,1.94,11.55,.26,1.75,.52,3.51,.77,5.28h.05s1.96,1.01,4.86,2.64h0c.69,.4,1.44,.82,2.23,1.28,5.46,3.15,12.84,7.73,17.41,11.81,.61,.55,1.18,1.09,1.68,1.62,2.64,2.78,7.42,7.79,12.39,15.9,2.59,4.21,5.23,9.25,7.65,15.26l1.96-.79c2.12,0,4.86,.24,8,.75,2.6,.42,5.48,1.03,8.53,1.84,3.35,.89,6.9,2.02,10.49,3.43,6.05,2.36,12.23,5.49,17.8,9.5,0,0,.01-.01,.01,0,.64,.45,1.27,.92,1.89,1.41,5.46,4.23,10.2,9.36,13.48,15.5,.28,.51,.55,1.04,.8,1.57,2.5,5.21,4.35,11.2,5.71,17.42l2-.42c1.03,0,3.8,.68,7.51,2.39,1.63,.75,3.43,1.69,5.36,2.87,3.73,2.27,7.88,5.4,11.95,9.59,1.61,1.66,3.21,3.48,4.76,5.48,2.05,2.64,4.02,5.59,5.85,8.88l1.94-1.1c1.23-.03,6.3-.84,12.96,0,6.81,.87,15.28,3.46,23.01,10.4,1.65,1.47,3.26,3.15,4.82,5.04l1.13-.55c1.55-1.04,11.43-.46,21.56,4.36-3.62-9.48-5.94-20.57-7.39-31.88-.81-6.23-1.35-12.52-1.69-18.65-.51-8.86-.62-17.36-.54-24.82,.11-10.28,.56-18.55,.79-23.01,.44-5.83,.85-12.92,1.13-20.89,.21-6.05,.33-12.61,.32-19.54-.01-6.53-.15-13.39-.46-20.44-.32-7.35-.82-14.91-1.56-22.54-.86-8.9-2.05-17.89-3.65-26.72-1.92-10.68-4.45-21.14-7.72-30.97-2.92-8.81-6.45-17.11-10.69-24.6-1.18-2.11-2.43-4.16-3.74-6.14-5.63-8.53-12.36-15.74-20.36-21.09-1.2-.76-2.71-1.7-4.46-2.8-4.63-2.9-11.01-6.9-18.18-11.54-2.03-1.3-4.12-2.67-6.26-4.07h-.01c-5.16-3.4-10.58-7.03-15.93-10.73-3.31-2.29-6.6-4.61-9.79-6.93-5.13-3.73-10.03-7.45-14.37-11-4.02-3.29-8.4-7.3-12.91-11.76-2.65-2.62-5.35-5.39-8.05-8.25-1.69-1.79-3.37-3.61-5.04-5.46h0c-5.96-6.58-11.75-13.42-16.85-19.84h0c-8.59-10.83-15.18-20.48-17.24-25.75-.63,1.03-1.26,2.05-1.9,3.06-1.01,1.61-2.04,3.2-3.09,4.79-6.48,9.83-13.57,19.49-20.09,30.48h0c-.96,1.62-1.9,3.25-2.82,4.92-3.39,6.09-6.55,12.61-9.32,19.81-2.66,6.9-4.95,14.41-6.73,22.74ZM316.67,61.2c-33.24-12.44-42.82,11.59-10.14,25.43,13.72,5.47,27.11,4.21,29.9-2.82,2.8-7.02-6.05-17.14-19.76-22.61Zm-114.06-25.86c-29.07-10.74-39.3,14.9-10.8,27.11,11.98,4.78,24.11,2.58,27.1-4.91,2.98-7.48-4.31-17.42-16.3-22.2ZM2.5,323.1c0-11,1-34,4-38s9-20,10-27,0-12-1-15-3-12-4-24.31c-1-12.3,0-25.69,0-29.69s2-14,4-20,9-17,12-24,6-17,7-25-2-19-6-25-4-14-3-19,1-10,0-15.26c-1-5.25-2-21.74,0-29.74s2-13,16-23.12l.06,.07c.19-.14,.94-.7,3.94-2.95,4-3,16-3,20-2s25,6,30.5,9.7c5.5,3.71,32.5,12.3,46.5,11.75s46-10.45,59-5.86c13,4.6,28,13.41,33,31.41s42,6,49,3,34-9,45.28-7c11.27,2,30.72,17,35.74,34.5,5.02,17.5,26.98,10.5,37.98,5.5s39-10,48.83-9.14c9.83,.87,69.17,20.14,72.17,50.14s3,31,10,37,72,68,78,74,29,41,33,47,6,13,15,10,19,9,19,9c0,0,.45,1.13,.17,2.74-.3,1.78-1.5,4.16-5.17,6.26-7,4-5,15-4,21s10,17,10,17c0,0,14,10,21,8,2.97-.85,4.14-1.7,4.73-2.24,0,0,.01,0,.02-.01,.07-.06,.35-.27,.76-.58,.25,0,.61,.24,1.49,.83,3,2,7,22,2,29s-14,24-3,41,14,73,15,94,4,102,6,153c3.53,63.43,34.5,167.29,67,183,17,5,45,30,55,38s34,36,40,45,12,24,10,32-9,20-28,20-40-18-49-25-57-48-80-69-99-52-119-58-49-11-78-12c-115.95-8.97-193.45,22.26-368-115C44.5,602.1,17.5,492.1,14.5,477.1s1-47,6-53,9-25,0-36-11-25-12-28-6-26-6-37Z" style="fill: #d2acdd;"/>
    <path d="M429.32,552.37h-.05c-.25-1.76-.51-3.52-.77-5.27-.43-2.59-1.11-6.53-1.94-11.55,1.87-.57,4.03-1.23,6.47-1.96,.54,12.14,1.01,20,1.15,21.43-2.9-1.63-4.86-2.65-4.86-2.65Z"/>
    <path d="M422.5,509.52h.01c1.72-.69,4.97-1.83,9.46-3.31,.34,10.45,.72,19.76,1.06,27.38-2.44,.73-4.6,1.39-6.47,1.96-1.15-6.91-2.58-15.84-4.06-26.03Z"/>
    <path d="M422.5,509.52c-1.28-8.85-2.59-18.66-3.78-28.91h0c1.56-.72,5.93-2.24,12.45-4.31,.21,10.62,.49,20.71,.79,29.91-4.49,1.48-7.74,2.62-9.46,3.31h-.01Z"/>
    <path d="M415.78,449.7c2.13-1.11,7.39-3.33,14.99-6.21,.05,11.21,.19,22.27,.41,32.81-6.52,2.07-10.89,3.59-12.45,4.31h0c-1.15-10.03-2.19-20.49-2.94-30.91Z"/>
    <path d="M415.78,449.7c-.54-7.44-.94-14.86-1.14-22.08h.09c1.51-.79,7.38-3.07,16.1-6.17-.07,7.34-.09,14.72-.06,22.03h0c-7.6,2.89-12.86,5.11-14.99,6.22Z"/>
    <path d="M414.64,427.62c-.22-7.7-.21-15.19,.09-22.25,2.09-1.12,8.13-3.28,16.5-5.99-.19,7.25-.32,14.64-.4,22.07-8.72,3.1-14.59,5.38-16.1,6.17h-.09Z"/>
    <path d="M306.53,86.63c-32.68-13.84-23.1-37.87,10.14-25.43,13.71,5.47,22.56,15.59,19.76,22.61-2.79,7.03-16.18,8.29-29.9,2.82Z" style="fill: #fff;"/>
    <path d="M191.81,62.45c-28.5-12.21-18.27-37.85,10.8-27.11,11.99,4.78,19.28,14.72,16.3,22.2-2.99,7.49-15.12,9.69-27.1,4.91Z" style="fill: #fff;"/>
  </g>
  <g>
    <path d="M67.5,400.1c76-109,198-222,268-251" style="fill: none; stroke: #000; stroke-miterlimit: 10; stroke-width: 5px;"/>
    <path d="M41.5,267.1S125.5,134.1,213.5,91.1" style="fill: none; stroke: #000; stroke-miterlimit: 10; stroke-width: 5px;"/>
    <path d="M56.5,115.1c21-29,43-51,79-69" style="fill: none; stroke: #000; stroke-miterlimit: 10; stroke-width: 5px;"/>
    <path d="M67.5,127.16c0,21.94,11.87,51.94,11.87,51.94" style="fill: none; stroke: #000; stroke-miterlimit: 10; stroke-width: 5px;"/>
    <path d="M96,227.16c1.5,6.94,9.5,51.94,23.5,70.94" style="fill: none; stroke: #000; stroke-miterlimit: 10; stroke-width: 5px;"/>
    <path d="M142.5,352.1c8,28,28,69,51,94" style="fill: none; stroke: #000; stroke-miterlimit: 10; stroke-width: 5px;"/>
    <path d="M201.5,583.33s98,136.77,233,191.77" style="fill: none; stroke: #000; stroke-miterlimit: 10; stroke-width: 5px;"/>
    <path d="M437.32,327.38c-.96,1.61-1.9,3.24-2.82,4.91-3.39,6.09-6.55,12.61-9.32,19.81-2.66,6.9-4.95,14.41-6.73,22.74-1.27,5.98-2.27,12.37-2.95,19.26-.35,3.6-.6,7.37-.77,11.27-.3,7.06-.31,14.55-.09,22.25,.2,7.22,.6,14.64,1.14,22.08,.75,10.42,1.79,20.88,2.94,30.91,1.19,10.25,2.5,20.06,3.78,28.91,1.48,10.19,2.91,19.12,4.06,26.03,.83,5.02,1.51,8.96,1.94,11.55,.26,1.75,.52,3.51,.77,5.28,3.51,25.08,5.24,52.32-.77,84.72" style="fill: none; stroke: #000; stroke-miterlimit: 10; stroke-width: 5px;"/>
    <path d="M496.5,207.1c-3.85,22.14-17.89,55.4-34.1,81.94-.63,1.03-1.26,2.05-1.9,3.06-1.01,1.61-2.04,3.2-3.09,4.79-6.48,9.83-13.57,19.49-20.09,30.48" style="fill: none; stroke: #000; stroke-miterlimit: 10; stroke-width: 5px;"/>
    <path d="M436.41,556.3c5.46,3.15,12.84,7.73,17.41,11.81,.61,.55,1.18,1.09,1.68,1.62,2.64,2.78,7.42,7.79,12.39,15.9,2.59,4.21,5.23,9.25,7.65,15.26,5.28,13.09,9.53,30.74,9.96,54.21" style="fill: none; stroke: #000; stroke-miterlimit: 10; stroke-width: 5px;"/>
    <line x1="434.18" y1="555.02" x2="434.18" y2="555.03" style="fill: none; stroke: #fff; stroke-miterlimit: 10; stroke-width: 5px;"/>
    <path d="M429.32,552.37s1.96,1.02,4.86,2.65" style="fill: none; stroke: #000; stroke-miterlimit: 10; stroke-width: 5px;"/>
    <path d="M522.33,615.62c.64,.45,1.27,.92,1.89,1.41,5.46,4.23,10.2,9.36,13.48,15.5,.28,.51,.55,1.04,.8,1.57,2.5,5.21,4.35,11.2,5.71,17.42,5.17,23.63,3.29,50.58,3.29,50.58" style="fill: none; stroke: #000; stroke-miterlimit: 10; stroke-width: 5px;"/>
    <path d="M477.5,600.1c2.12,0,4.86,.24,8,.75,2.6,.42,5.48,1.03,8.53,1.84,3.35,.89,6.9,2.02,10.49,3.43,6.05,2.36,12.23,5.49,17.8,9.5" style="fill: none; stroke: #000; stroke-miterlimit: 10; stroke-width: 5px;"/>
    <path d="M546.21,651.1c1.03,0,3.8,.68,7.51,2.39,1.63,.75,3.43,1.69,5.36,2.87,3.73,2.27,7.88,5.4,11.95,9.59,1.61,1.66,3.21,3.48,4.76,5.48,2.05,2.64,4.02,5.59,5.85,8.88,4.6,8.28,8.26,18.72,9.86,31.79" style="fill: none; stroke: #000; stroke-miterlimit: 10; stroke-width: 5px;"/>
    <path d="M583.58,679.21c1.23-.03,6.3-.84,12.96,0,6.81,.87,15.28,3.46,23.01,10.4,1.65,1.47,3.26,3.15,4.82,5.04,6.77,8.25,12.45,20.71,15.13,39.45" style="fill: none; stroke: #000; stroke-miterlimit: 10; stroke-width: 5px;"/>
    <path d="M625.5,694.1c1.55-1.04,11.43-.46,21.56,4.36,9.43,4.49,19.07,12.66,22.44,26.64,7,29,16,52,23,60s47.26,50.22,88.63,61.11" style="fill: none; stroke: #000; stroke-miterlimit: 10; stroke-width: 5px;"/>
    <path d="M562.6,388.76c2.14,1.4,4.23,2.77,6.26,4.07,7.17,4.64,13.55,8.64,18.18,11.54,1.75,1.1,3.26,2.04,4.46,2.8,8,5.35,14.73,12.56,20.36,21.09,1.31,1.98,2.56,4.03,3.74,6.14,4.24,7.49,7.77,15.79,10.69,24.6,3.27,9.83,5.8,20.29,7.72,30.97,1.6,8.83,2.79,17.82,3.65,26.72,.74,7.63,1.24,15.19,1.56,22.54,.31,7.05,.45,13.91,.46,20.44,.01,6.93-.11,13.49-.32,19.54-.28,7.97-.69,15.06-1.13,20.89-.23,4.46-.68,12.73-.79,23.01-.08,7.46,.03,15.96,.54,24.82,.34,6.13,.88,12.42,1.69,18.65,1.45,11.31,3.77,22.4,7.39,31.88" style="fill: none; stroke: #000; stroke-miterlimit: 10; stroke-width: 5px;"/>
    <path d="M501.54,340.09c2.7,2.86,5.4,5.63,8.05,8.25,4.51,4.46,8.89,8.47,12.91,11.76,4.34,3.55,9.24,7.27,14.37,11,3.19,2.32,6.48,4.64,9.79,6.93,5.35,3.7,10.77,7.33,15.93,10.73" style="fill: none; stroke: #000; stroke-miterlimit: 10; stroke-width: 5px;"/>
    <path d="M496.5,334.63c1.67,1.85,3.35,3.67,5.04,5.46" style="fill: none; stroke: #fff; stroke-miterlimit: 10; stroke-width: 5px;"/>
    <path d="M479.64,314.79c5.1,6.42,10.89,13.26,16.85,19.84" style="fill: none; stroke: #000; stroke-miterlimit: 10; stroke-width: 5px;"/>
    <path d="M462.4,289.04c2.06,5.27,8.65,14.92,17.24,25.74" style="fill: none; stroke: #000; stroke-miterlimit: 10; stroke-width: 5px;"/>
    <path d="M639.5,322.43c4,14.67,28,51.22,44,59.45" style="fill: none; stroke: #000; stroke-miterlimit: 10; stroke-width: 5px;"/>
    <path d="M630.36,329.1c4.14,13,21.34,41.55,37.24,52.78" style="fill: none; stroke: #000; stroke-miterlimit: 10; stroke-width: 5px;"/>
    <path d="M434.18,555.03c.69,.39,1.44,.81,2.23,1.27" style="fill: none; stroke: #000; stroke-miterlimit: 10; stroke-width: 5px;"/>
    <path d="M586.47,235.38c19.9,25.8,28.55,52.49,19.31,59.62-23.33,15.38-92.87-74.84-72.06-93.45,9.23-7.12,32.85,8.02,52.75,33.83Z" style="fill: none; stroke: #000; stroke-miterlimit: 10; stroke-width: 5px;"/>
    <path d="M491.63,137.73c-4.35,7.53-20.93,6.1-37.05-3.21-38.29-23.11-23.41-48.88,15.74-27.27,16.12,9.31,25.66,22.95,21.31,30.48Z" style="fill: none; stroke: #000; stroke-miterlimit: 10; stroke-width: 5px;"/>
    <path d="M336.43,83.81c-2.79,7.03-16.18,8.29-29.9,2.82-32.68-13.84-23.1-37.87,10.14-25.43,13.71,5.47,22.56,15.59,19.76,22.61Z" style="fill: none; stroke: #000; stroke-miterlimit: 10; stroke-width: 5px;"/>
    <path d="M218.91,57.54c-2.99,7.49-15.12,9.69-27.1,4.91-28.5-12.21-18.27-37.85,10.8-27.11,11.99,4.78,19.28,14.72,16.3,22.2Z" style="fill: none; stroke: #000; stroke-miterlimit: 10; stroke-width: 5px;"/>
    <path d="M434.5,332.29s.72-.12,1.99-.36c3.29-.6,10.26-1.95,17.79-3.89,9.11-2.34,19.05-5.53,24.29-9.3,.53-.37,1-.75,1.43-1.14" style="fill: none; stroke: #fff; stroke-miterlimit: 10; stroke-width: 5px;"/>
    <line x1="496.49" y1="334.63" x2="496.5" y2="334.63" style="fill: none; stroke: #000; stroke-miterlimit: 10; stroke-width: 5px;"/>
    <path d="M425.18,352.1c2.89-.22,5.72-.57,8.84-1.13,5.14-.9,11.09-2.33,19.46-4.56,6-1.59,13.24-3.6,22.32-6.1,6.03-1.66,12.87-3.55,20.69-5.68" style="fill: none; stroke: #fff; stroke-miterlimit: 10; stroke-width: 5px;"/>
    <path d="M418.46,374.84c.01-.2,5.6-2.07,14.04-4.73,5.79-1.82,12.91-4.02,20.5-6.31,7.08-2.14,14.56-4.36,21.73-6.43,9.59-2.77,18.64-5.28,25.42-6.96,4.09-1.03,7.36-1.76,9.44-2.07h.01" style="fill: none; stroke: #fff; stroke-miterlimit: 10; stroke-width: 5px;"/>
    <path d="M414.73,405.37c2.09-1.12,8.13-3.28,16.5-5.99,6.1-1.97,13.43-4.24,21.37-6.61,6.81-2.04,14.06-4.16,21.35-6.23,8.49-2.41,17.04-4.77,25.02-6.89,7.9-2.09,15.25-3.96,21.44-5.4,7.63-1.8,13.5-2.96,16.46-3.15h.01" style="fill: none; stroke: #fff; stroke-miterlimit: 10; stroke-width: 5px;"/>
    <line x1="562.59" y1="388.76" x2="562.6" y2="388.76" style="fill: none; stroke: #000; stroke-miterlimit: 10; stroke-width: 5px;"/>
    <path d="M414.73,427.62c1.51-.79,7.38-3.07,16.1-6.17,6.03-2.14,13.42-4.67,21.69-7.36,6.65-2.17,13.88-4.44,21.41-6.69,7.95-2.38,16.24-4.74,24.57-6.95,6.91-1.83,13.85-3.55,20.64-5.08,9.03-2.03,17.79-3.73,25.88-4.9,6.34-.93,12.26-1.52,17.57-1.71" style="fill: none; stroke: #fff; stroke-miterlimit: 10; stroke-width: 5px;"/>
    <path d="M430.77,443.48c5.95-2.25,13.35-4.91,21.81-7.77,6.64-2.24,13.93-4.6,21.7-6.98,7.58-2.31,15.61-4.64,23.93-6.9,6.58-1.78,13.35-3.51,20.21-5.14,8.35-2,16.84-3.84,25.33-5.46,7.78-1.49,15.56-2.78,23.22-3.81,6.52-.88,12.96-1.58,19.24-2.05" style="fill: none; stroke: #fff; stroke-miterlimit: 10; stroke-width: 5px;"/>
    <path d="M415.78,449.7c2.13-1.11,7.39-3.33,14.99-6.21" style="fill: none; stroke: #fff; stroke-miterlimit: 10; stroke-width: 5px;"/>
    <path d="M418.73,480.61c1.56-.72,5.93-2.24,12.45-4.31,5.73-1.82,13.12-4.07,21.72-6.57,6.83-1.99,14.42-4.14,22.55-6.36,7.19-1.97,14.8-3.99,22.68-6.02,6.45-1.66,13.06-3.32,19.77-4.94,8.17-1.98,16.47-3.91,24.73-5.73,7.35-1.61,14.67-3.14,21.86-4.54,8.53-1.67,16.88-3.16,24.85-4.39,7.64-1.19,14.94-2.15,21.74-2.81,1.44-.15,2.86-.28,4.25-.39" style="fill: none; stroke: #fff; stroke-miterlimit: 10; stroke-width: 5px;"/>
    <path d="M422.51,509.52c1.72-.69,4.97-1.83,9.46-3.31,5.48-1.82,12.8-4.14,21.42-6.79,7.07-2.18,15.02-4.57,23.54-7.06,6.85-2.01,14.07-4.09,21.49-6.18,6.39-1.8,12.94-3.61,19.54-5.4,8.1-2.19,16.29-4.34,24.37-6.39,7.12-1.8,14.15-3.53,20.98-5.13,8.98-2.09,17.59-3.97,25.56-5.54,7.91-1.55,15.18-2.78,21.54-3.6,6.28-.81,11.67-1.22,15.88-1.12h.23" style="fill: none; stroke: #fff; stroke-miterlimit: 10; stroke-width: 5px;"/>
    <path d="M426.56,535.55c1.87-.57,4.03-1.23,6.47-1.96,5.66-1.69,12.77-3.77,20.97-6.1,7.43-2.11,15.77-4.43,24.74-6.84,6.48-1.75,13.29-3.54,20.33-5.35,6.29-1.61,12.77-3.23,19.36-4.84,7.9-1.92,15.96-3.81,24.07-5.62,6.67-1.5,13.38-2.94,20.04-4.3,8.89-1.82,17.72-3.49,26.3-4.95,7.48-1.28,14.79-2.39,21.8-3.31,8.25-1.07,16.1-1.87,23.37-2.31,.13-.01,.25-.01,.37-.02" style="fill: none; stroke: #fff; stroke-miterlimit: 10; stroke-width: 5px;"/>
    <path d="M436.41,556.3c1.81-1.32,7.99-4.05,18.19-7.51,6.8-2.31,15.39-4.94,25.65-7.7,5.96-1.59,12.48-3.23,19.55-4.88,6.02-1.39,12.43-2.79,19.23-4.17,7.52-1.53,15.5-3.03,23.94-4.47,6.22-1.05,12.69-2.08,19.39-3.06,8.54-1.25,17.46-2.42,26.75-3.49,7.17-.83,14.57-1.6,22.18-2.3,8.52-.77,17.32-1.46,26.37-2.03,.04,0,.09,0,.13,0" style="fill: none; stroke: #fff; stroke-miterlimit: 10; stroke-width: 5px;"/>
    <path d="M453.82,568.11c.21-.16,.7-.44,1.49-.83,3.23-1.6,11.5-4.96,26.33-8.86,5.43-1.43,11.73-2.93,18.99-4.43,5.75-1.2,12.11-2.4,19.1-3.59,7.26-1.22,15.22-2.42,23.9-3.56,5.94-.78,12.23-1.53,18.87-2.24,8.41-.91,17.4-1.75,26.99-2.51,7.16-.57,14.67-1.09,22.52-1.55,8.64-.51,17.71-.95,27.21-1.31,.09,0,.19-.01,.28-.01" style="fill: none; stroke: #fff; stroke-miterlimit: 10; stroke-width: 5px;"/>
    <path d="M467.9,585.63c1.52-.82,7.07-2.5,15.72-4.64,5.11-1.27,11.31-2.69,18.4-4.19,5.74-1.22,12.06-2.48,18.86-3.74,7.41-1.37,15.4-2.76,23.84-4.08,5.88-.93,11.97-1.83,18.24-2.68,8.72-1.18,17.77-2.28,27.05-3.23,7.48-.77,15.1-1.45,22.8-2.01,8.84-.63,17.77-1.11,26.72-1.39" style="fill: none; stroke: #fff; stroke-miterlimit: 10; stroke-width: 5px;"/>
    <path d="M494.27,600.1c.15-.09,.33-.19,.55-.3,1.45-.71,4.49-1.7,8.83-2.87,4.74-1.28,11.04-2.78,18.5-4.34,7.02-1.48,15.07-3.02,23.83-4.51,5.64-.96,11.58-1.9,17.73-2.78,8.63-1.25,17.68-2.39,26.89-3.34,7.61-.78,15.33-1.44,23.04-1.91,8.61-.53,17.19-.84,25.56-.85" style="fill: none; stroke: #fff; stroke-miterlimit: 10; stroke-width: 5px;"/>
    <path d="M522.32,615.62s.01-.01,.01,0c.39-.23,.95-.49,1.68-.79,3.82-1.54,12.16-3.94,23.73-6.19,5.13-1,10.89-1.98,17.18-2.83,8.05-1.1,16.97-2.01,26.51-2.55,7.42-.43,15.22-.63,23.29-.52,6.4,.09,12.97,.37,19.66,.88" style="fill: none; stroke: #fff; stroke-miterlimit: 10; stroke-width: 5px;"/>
    <path d="M538.5,632.1c1.01-.25,5.22-1.21,11.6-2.44,4.56-.87,10.24-1.88,16.64-2.87,7.71-1.19,16.49-2.35,25.66-3.19,7.63-.7,15.53-1.19,23.32-1.28,7.12-.11,14.14,.12,20.78,.78" style="fill: none; stroke: #fff; stroke-miterlimit: 10; stroke-width: 5px;"/>
    <path d="M559.08,656.36c1.29-.95,5.16-2.59,10.99-4.29,6.04-1.75,14.19-3.56,23.75-4.72,7.05-.85,14.88-1.34,23.19-1.18,6.66,.12,13.64,.66,20.78,1.77" style="fill: none; stroke: #fff; stroke-miterlimit: 10; stroke-width: 5px;"/>
    <path d="M575.79,671.43c2.44-.99,9.93-2.64,19.6-3.94,6.82-.91,14.74-1.65,22.73-1.85,7.21-.18,14.48,.06,21.08,1" style="fill: none; stroke: #fff; stroke-miterlimit: 10; stroke-width: 5px;"/>
    <path d="M434.18,555.02c-.14-1.43-.61-9.29-1.15-21.43-.34-7.62-.72-16.93-1.06-27.38-.3-9.2-.58-19.29-.79-29.91-.22-10.54-.36-21.6-.41-32.81h0c-.03-7.32-.01-14.7,.06-22.04,.08-7.43,.21-14.82,.4-22.07,.28-10.12,.69-19.97,1.27-29.27,.42-6.7,.92-13.11,1.52-19.14,.69-6.91,1.51-13.31,2.47-19.04,.27-1.57,.54-3.09,.83-4.55h0" style="fill: none; stroke: #fff; stroke-miterlimit: 10; stroke-width: 5px;"/>
    <path d="M455.5,569.73c-.05-.28-.12-1.12-.19-2.45-.19-3.32-.44-9.74-.71-18.49-.19-6.07-.39-13.26-.6-21.3-.21-8.5-.42-17.96-.61-28.07-.18-9.41-.35-19.39-.49-29.69-.14-11.08-.25-22.52-.32-34.02-.04-7.21-.06-14.45-.06-21.62s.03-14.32,.08-21.32c.07-10,.21-19.73,.4-28.97,.13-6.02,.29-11.84,.48-17.39,.22-6.53,.49-12.68,.8-18.37,.75-13.46,1.77-24.28,3.13-31.15" style="fill: none; stroke: #fff; stroke-miterlimit: 10; stroke-width: 5px;"/>
    <path d="M479.64,314.78h0c-.35,.99-.71,2.3-1.07,3.96-.98,4.54-1.96,11.68-2.77,21.57-.41,4.98-.77,10.66-1.07,17.06-.39,8.45-.67,18.16-.78,29.17-.07,6.5-.08,13.45-.02,20.86,.06,6.72,.17,13.83,.35,21.33,.25,10.75,.63,22.28,1.17,34.64,.4,9.21,.89,18.87,1.48,28.99,.52,9.06,1.12,18.48,1.81,28.29,.46,6.64,.96,13.45,1.51,20.44,.43,5.66,.9,11.44,1.39,17.33,.62,7.34,1.28,14.87,1.98,22.57,.6,6.49,1.22,13.11,1.88,19.86" style="fill: none; stroke: #fff; stroke-miterlimit: 10; stroke-width: 5px;"/>
    <path d="M500.99,340.6c-.27,1.72-.56,5.08-.84,9.81-.42,7-.83,17.02-1.18,29.24-.18,6.38-.34,13.35-.47,20.8-.12,6.76-.22,13.92-.29,21.38-.1,11.24-.14,23.18-.08,35.52,.04,9.42,.13,19.07,.29,28.83,.15,9.65,.36,19.39,.65,29.12,.21,7,.45,13.98,.73,20.91,.25,5.98,.52,11.92,.83,17.78,.4,7.76,.87,15.39,1.39,22.81,.49,6.91,1.03,13.64,1.63,20.13,.29,3.09,.59,6.13,.9,9.11" style="fill: none; stroke: #fff; stroke-miterlimit: 10; stroke-width: 5px;"/>
    <path d="M522.5,360.1c-.75,1.81-1.46,6.74-2.09,14.15-.48,5.68-.91,12.81-1.27,21.12-.28,6.45-.53,13.6-.72,21.32-.28,10.9-.46,22.94-.52,35.72-.04,9.12-.02,18.62,.06,28.37,.08,9.7,.24,19.63,.47,29.68,.15,7.16,.35,14.37,.6,21.58,.2,6.13,.43,12.26,.7,18.36,.33,7.62,.71,15.19,1.15,22.66,.38,6.61,.8,13.13,1.27,19.53,.56,7.61,1.17,15.04,1.86,22.24,.07,.74,.14,1.47,.21,2.2,.1,1.03,.2,2.05,.3,3.06" style="fill: none; stroke: #fff; stroke-miterlimit: 10; stroke-width: 5px;"/>
    <path d="M546.66,378.03c-.54,1.7-1.1,6.01-1.64,12.44-.45,5.49-.89,12.51-1.27,20.76-.48,10.16-.87,22.17-1.12,35.45-.17,8.74-.27,18.03-.3,27.71-.03,9.81,.02,20.02,.17,30.45,.11,7.48,.26,15.08,.47,22.73,.19,6.4,.4,12.83,.66,19.27,.31,7.4,.67,14.8,1.09,22.14,.37,6.43,.79,12.8,1.26,19.1,.52,6.97,1.11,13.84,1.76,20.56,.71,7.21,1.49,14.23,2.36,21.02,1.07,8.35,2.27,16.33,3.62,23.83" style="fill: none; stroke: #fff; stroke-miterlimit: 10; stroke-width: 5px;"/>
    <path d="M568.86,392.83c-.61,3.12-1.26,8.1-1.89,14.59-.88,8.99-1.74,20.88-2.48,34.72-.44,8.39-.84,17.5-1.18,27.12-.33,9.95-.6,20.46-.77,31.28-.11,7.85-.18,15.87-.18,23.97,0,6.66,.04,13.37,.14,20.09,.09,7.25,.25,14.5,.46,21.7,.2,6.39,.44,12.74,.75,19,.33,6.97,.73,13.82,1.21,20.51,.52,7.21,1.12,14.23,1.82,20.98,.94,8.97,2.04,17.46,3.33,25.28,.79,4.77,1.65,9.28,2.58,13.52" style="fill: none; stroke: #fff; stroke-miterlimit: 10; stroke-width: 5px;"/>
    <path d="M591.5,407.17c-1,4.79-1.72,15.67-2.16,30.58-.23,7.67-.38,16.42-.47,25.97-.08,9.88-.09,20.6-.03,31.87,.05,8.23,.14,16.74,.27,25.43,.1,6.93,.22,13.98,.38,21.07,.15,6.97,.32,13.98,.52,20.98,.18,6.33,.37,12.64,.59,18.89,.25,7.19,.52,14.32,.83,21.3,.29,6.94,.62,13.74,.97,20.34,.43,8.28,.91,16.24,1.42,23.75,.49,7.15,1.01,13.9,1.57,20.14,.37,4.15,.75,8.06,1.15,11.72" style="fill: none; stroke: #fff; stroke-miterlimit: 10; stroke-width: 5px;"/>
    <path d="M611.54,428.47c-.17,1.96-.32,4.12-.46,6.47-.38,6.81-.61,15.25-.67,25.18-.06,9.41,.02,20.16,.23,32.16,.16,8.23,.37,17.06,.65,26.44,.21,6.97,.45,14.25,.72,21.82,.24,6.62,.51,13.46,.8,20.52,.26,6.17,.53,12.5,.83,18.99,.33,7.36,.69,14.93,1.08,22.69,.31,6.4,.65,12.92,1,19.58,.41,7.78,.84,15.73,1.29,23.85,.36,6.38,.73,12.88,1.11,19.47,.46,7.85,.93,15.84,1.43,23.97" style="fill: none; stroke: #fff; stroke-miterlimit: 10; stroke-width: 5px;"/>
    <path d="M705.23,356.86c-.59,.54-1.76,1.39-4.73,2.24-7,2-21-8-21-8,0,0-9-11-10-17s-3-17,4-21c3.67-2.1,4.87-4.48,5.17-6.26,.28-1.61-.17-2.74-.17-2.74,0,0-10-12-19-9s-11-4-15-10-27-41-33-47-71-68-78-74-7-7-10-37-62.34-49.27-72.17-50.14c-9.83-.86-37.83,4.14-48.83,9.14s-32.96,12-37.98-5.5c-5.02-17.5-24.47-32.5-35.74-34.5-11.28-2-38.28,4-45.28,7s-44,15-49-3-20-26.81-33-31.41c-13-4.59-45,5.31-59,5.86s-41-8.04-46.5-11.75c-5.5-3.7-26.5-8.7-30.5-9.7s-16-1-20,2c-3,2.25-3.75,2.81-3.94,2.95l-.06,.05" style="fill: none; stroke: #000; stroke-miterlimit: 10; stroke-width: 5px;"/>
    <path d="M41.5,7.98c-14,10.12-14,15.12-16,23.12s-1,24.49,0,29.74c1,5.26,1,10.26,0,15.26s-1,13,3,19,7,17,6,25-4,18-7,25-10,18-12,24-4,16-4,20-1,17.39,0,29.69c1,12.31,3,21.31,4,24.31s2,8,1,15-7,23-10,27-4,27-4,38,5,34,6,37,3,17,12,28,5,30,0,36-9,38-6,53,30,125,163,236c174.55,137.26,252.05,106.03,368,115,29,1,58,6,78,12s96,37,119,58,71,62,80,69,30,25,49,25,26-12,28-20-4-23-10-32-30-37-40-45-38-33-55-38c-32.5-15.71-63.47-119.57-67-183-2-51-5-132-6-153s-4-77-15-94-2-34,3-41,1-27-2-29c-.88-.59-1.24-.83-1.49-.83s-.38,.22-.76,.58" style="fill: none; stroke: #000; stroke-miterlimit: 10; stroke-width: 5px;"/>
    <path d="M756.5,305.1c0,13.25-10.74,24-24,24-31.83-1.27-31.82-46.74,0-48,13.26,0,24,10.74,24,24Z" style="fill: none; stroke: #000; stroke-miterlimit: 10; stroke-width: 5px;"/>
    <path d="M683.76,305c-.18-23.75,15.9-47.62,48.24-48.9,26.79,0,48.5,21.71,48.5,48.5s-21.71,48.5-48.5,48.5c-6.8-.27-12.89-1.54-18.25-3.6-19.85-7.61-29.85-26.02-29.99-44.5Z" style="fill: none; stroke: #000; stroke-miterlimit: 10; stroke-width: 5px;"/>
    <path d="M713.5,350.1c-1.57,1.57-5.75,4.82-7.49,6.17-.41,.31-.69,.52-.76,.58,0,.01-.02,.01-.02,.01" style="fill: none; stroke: #000; stroke-miterlimit: 10; stroke-width: 5px;"/>
    <polyline points="684.88 304.6 683.76 305 678.67 306.84" style="fill: none; stroke: #000; stroke-miterlimit: 10; stroke-width: 5px;"/>
  </g>
</svg>
