<?xml version="1.0" encoding="utf-8"?>
<!-- Generator: Adobe Illustrator 27.0.0, SVG Export Plug-In . SVG Version: 6.00 Build 0)  -->
<svg version="1.1" id="图层_1" xmlns="http://www.w3.org/2000/svg" xmlns:xlink="http://www.w3.org/1999/xlink" x="0px" y="0px"
	 viewBox="0 0 1024 1024" style="enable-background:new 0 0 1024 1024;" xml:space="preserve">
<style type="text/css">
	.st0{fill:#374151;}
	.st1{fill:#34D399;enable-background:new    ;}
</style>
<g>
	<path class="st0" d="M128.8,602.5L676.7,265c12.4-7.5,28.1-6.8,39.6,2.3c51.9,39.9,98.6,80.8,129.6,114.9c0,0,26.8,27.4,38.3,44.8
		c18.8,23.6,27.8,54.6,27.8,84.8c0,33.8-9.8,65.6-29.4,91.1c-4.5,4.5-21.4,24.6-37.5,41.1c-93.6,102-337.5,270.8-465.8,321.8
		c-18.6,8.3-68.4,25.5-94.3,26.4c-24.9,0-48.9-5.4-72-17.4c-28.3-16.3-50.6-41.6-63.2-72c-8.1-21-20.6-83.8-20.6-85.7
		c-8.1-44.8-14.1-108-17.1-181.7C111.2,622,117.8,609.7,128.8,602.5L128.8,602.5z"/>
	<path class="st1" d="M165.4,420.8c-24.2,15-54.6-4.1-53.4-32.8c2.8-67.5,7.9-126.8,14.1-171c0.9-0.9,13.3-79.1,27.8-105.8
		c23.8-48.2,72.8-78.9,126.4-79.3h4.3c33.9,0.9,106.1,30.9,106.1,32.8c36.4,15.2,83.8,40.7,134.8,71.4c17.3,10.7,22.7,33.2,12,50.4
		c-2.8,4.7-6.9,8.8-11.4,11.8L165.4,420.8z"/>
</g>
</svg>
