<?xml version="1.0" encoding="utf-8"?>
<!-- Generator: Adobe Illustrator 27.0.0, SVG Export Plug-In . SVG Version: 6.00 Build 0)  -->
<svg version="1.1" id="图层_1" xmlns="http://www.w3.org/2000/svg" xmlns:xlink="http://www.w3.org/1999/xlink" x="0px" y="0px"
	 viewBox="0 0 1024 1024" style="enable-background:new 0 0 1024 1024;" xml:space="preserve">
<style type="text/css">
	.st0{fill:#34D399;}
	.st1{fill:#374151;}
</style>
<g>
	<path class="st0" d="M456.1,483.6l239.9,241l140.5-399.8L456.1,483.6z"/>
	<path class="st1" d="M583.7,913.5H583c-25.5-0.3-47.7-16-56.5-40L458.6,688C437.7,631,393,586.3,336,565.4l-185.5-67.9
		c-24-8.8-39.7-30.9-40-56.5c-0.3-25.5,14.9-48,38.7-57.4l687-269.3c21-8.2,44.8-3.2,60.7,12.7s20.9,39.7,12.7,60.7l-269.4,687
		C631.1,898.3,608.9,913.5,583.7,913.5z M198.5,440.1l161.7,59.2c76.6,28,136.6,88,164.6,164.5L584,825.5l248.5-634L198.5,440.1
		L198.5,440.1z"/>
</g>
</svg>
